<svg width="192" height="192" viewBox="0 0 192 192" fill="none" xmlns="http://www.w3.org/2000/svg">
<g clip-path="url(#clip0_221_25)">
<path d="M96 192C70.5392 192 46.1212 181.886 28.1178 163.882C10.1143 145.879 0 121.461 0 96C0 70.5392 10.1143 46.1212 28.1177 28.1178C46.1212 10.1143 70.5392 0 96 0L96 96L96 192Z" fill="#F5F5F5"/>
<path d="M96 0C121.461 3.03617e-07 145.879 10.1143 163.882 28.1177C181.886 46.1212 192 70.5392 192 96C192 121.461 181.886 145.879 163.882 163.882C145.879 181.886 121.461 192 96 192L96 96V0Z" fill="#252525"/>
<path d="M37.7475 99.632C37.7475 115.76 47.6035 127.664 66.8035 127.664C84.5955 127.664 96.1155 116.4 96.1155 99.888V32.432H79.7315V98.992C79.7315 107.184 75.8915 112.432 66.6755 112.432C57.4595 112.432 53.4915 106.8 53.4915 99.632V94.128H37.7475V99.632Z" fill="#252525"/>
<path d="M111.877 153V118.056H131.973L147.845 153H165.765L147.973 114.6C158.981 110.12 164.869 101.16 164.869 88.616C164.869 70.184 152.453 59.432 131.205 59.432H95.493V153H111.877ZM111.877 74.024H131.205C141.573 74.024 147.717 79.272 147.717 88.616C147.717 98.088 141.573 103.592 131.205 103.592H111.877V74.024Z" fill="#F5F5F5"/>
</g>
<rect x="3" y="3" width="186" height="186" rx="93" stroke="#252525" stroke-width="6"/>
<defs>
<clipPath id="clip0_221_25">
<rect width="192" height="192" rx="96" fill="white"/>
</clipPath>
</defs>
</svg>
